# xmcd CD database file
#
# Track frame offsets:
#	150
#	10027
#	18987
#	30652
#	45830
#	50857
#	67557
#	78035
#	90050
#	104417
#	112522
#	130552
#	133195
#	151480
#	165852
#	181225
#
# Disc length: 2622 seconds
#
# Revision: 0
# Processed by: cddbd v1.4PL0 Copyright (c) Steve Scherf et al.
# Submitted via: CDex 1.51
#
DISCID=a10a3c10
DTITLE=Anúna - Omnis
DYEAR=1996
DGENRE=New Age
TTITLE0=Gaudete
TTITLE1=Ardaigh Cuan
TTITLE2=Codaih A Linbh
TTITLE3=Beati Quorum Via
TTITLE4=St Nicholas
TTITLE5=The Flower Of Maherally
TTITLE6=Geantrai
TTITLE7=Agnus Dei
TTITLE8=Diwanit Bugale
TTITLE9=Dúlamán
TTITLE10=Maria Matrem
TTITLE11=Ave Generosa
TTITLE12=O Viridissima
TTITLE13=Salve Rex Gloriae
TTITLE14=The Mermaid
TTITLE15=Tenebrae I
EXTD=YEAR: 1996
EXTT0=
EXTT1=
EXTT2=
EXTT3=
EXTT4=
EXTT5=
EXTT6=
EXTT7=
EXTT8=
EXTT9=
EXTT10=
EXTT11=
EXTT12=
EXTT13=
EXTT14=
EXTT15=
PLAYORDER=
